<svg width="86" height="86" viewBox="0 0 86 86" fill="none" xmlns="http://www.w3.org/2000/svg">
<path d="M73.7909 3.87911C71.4271 3.85828 67.996 5.41653 63.6708 8.72921C63.5801 8.64523 63.4827 8.56359 63.3819 8.48733C61.7089 7.22303 59.3293 7.55444 58.0647 9.22757C56.8204 10.8742 57.1219 13.2084 58.7261 14.4872C57.941 16.8953 58.5464 19.2995 59.9177 21.2269C59.8614 22.3527 59.4625 23.3005 58.243 24.2504C56.7019 25.451 55.0622 26.9812 53.4244 28.7805C49.681 26.8724 46.8114 23.8755 44.354 20.4501L44.7058 20.3031C50.8786 17.6929 48.4941 13.54 42.8531 15.9253C41.7221 13.2519 40.3895 12.1136 39.3677 12.0884C37.874 12.0515 37.0447 14.3924 38.4751 17.7782C31.5599 20.7022 33.7687 24.9295 40.3282 22.1558L40.6325 22.0248C43.0286 26.7114 46.2071 30.0853 50.2907 32.5749C47.4118 36.4197 44.7693 41.022 42.9891 46.0284C40.5096 44.0883 38.1046 43.2224 35.688 43.236C32.3858 43.2545 29.0625 44.9115 25.5152 47.6822L25.4154 47.5246C21.6076 41.5066 17.3853 43.7201 21.3999 50.0651C16.1691 53.3746 17.9074 57.9012 23.9457 54.0806C27.2204 59.2571 31.5451 57.2043 27.9613 51.5399L27.6304 51.015C33.7579 48.2825 38.2741 49.1863 40.9525 54.5004C40.7534 56.1124 40.6709 57.7368 40.7056 59.3607C35.4011 68.5973 26.6758 77.5803 17.2059 71.9113C9.47853 67.2855 5.22052 48.7513 14.4504 44.4802C-0.475297 46.8317 2.3365 71.0453 12.5451 78.4255C24.1165 86.7907 42.2924 80.0699 50.585 67.0876C52.1354 65.5342 53.6155 63.8352 55.0098 62.0275C59.7449 63.672 62.9939 67.8275 64.2112 73.2082L63.9017 73.1872C57.2111 72.7651 57.4897 77.546 63.6024 77.9323C63.1529 85.0619 67.9579 84.4092 68.3475 78.2313C75.8406 78.7047 75.755 73.9347 68.6465 73.4862L68.0694 73.4492C68.4591 65.4502 64.5263 60.0144 59.2352 55.7131C61.0745 52.5136 62.607 49.1116 63.7284 45.6296C66.215 48.538 69.8761 49.0229 74.7881 47.4982C77.4101 53.9523 81.8831 52.5398 79.1503 45.6086C84.9083 43.3373 84.055 38.5628 77.4074 41.184C75.161 35.4851 70.5286 36.6958 72.9877 42.9318L73.3186 43.7667C68.7159 44.8865 66.7994 42.8457 65.2665 39.3781C65.8673 35.8021 65.9817 32.2121 65.4975 28.7331C65.2662 27.0726 66.3423 26.1686 67.4921 25.3003C68.8462 25.2886 70.1947 24.9095 71.4079 24.0668C73.0708 25.2034 75.3512 24.8455 76.578 23.2219C77.8428 21.5489 77.5113 19.1691 75.8381 17.9047C75.7253 17.8196 75.6079 17.7407 75.4864 17.6685C78.8144 8.83184 77.9461 3.91539 73.7909 3.87911Z" fill="#65B2A9"/>
</svg>
